 

<svg xmlns="http://www.w3.org/2000/svg" viewBox="0 0 1440 320"><path fill="#49108B" fill-opacity="1" d="M0,320L6.2,277.3C12.3,235,25,149,37,112C49.2,75,62,85,74,101.3C86.2,117,98,139,111,144C123.1,149,135,139,148,138.7C160,139,172,149,185,160C196.9,171,209,181,222,186.7C233.8,192,246,192,258,176C270.8,160,283,128,295,101.3C307.7,75,320,53,332,42.7C344.6,32,357,32,369,64C381.5,96,394,160,406,165.3C418.5,171,431,117,443,90.7C455.4,64,468,64,480,53.3C492.3,43,505,21,517,16C529.2,11,542,21,554,37.3C566.2,53,578,75,591,80C603.1,85,615,75,628,90.7C640,107,652,149,665,165.3C676.9,181,689,171,702,144C713.8,117,726,75,738,85.3C750.8,96,763,160,775,165.3C787.7,171,800,117,812,101.3C824.6,85,837,107,849,133.3C861.5,160,874,192,886,202.7C898.5,213,911,203,923,170.7C935.4,139,948,85,960,85.3C972.3,85,985,139,997,181.3C1009.2,224,1022,256,1034,234.7C1046.2,213,1058,139,1071,128C1083.1,117,1095,171,1108,197.3C1120,224,1132,224,1145,202.7C1156.9,181,1169,139,1182,144C1193.8,149,1206,203,1218,234.7C1230.8,267,1243,277,1255,261.3C1267.7,245,1280,203,1292,176C1304.6,149,1317,139,1329,144C1341.5,149,1354,171,1366,160C1378.5,149,1391,107,1403,128C1415.4,149,1428,235,1434,277.3L1440,320L1440,0L1433.8,0C1427.7,0,1415,0,1403,0C1390.8,0,1378,0,1366,0C1353.8,0,1342,0,1329,0C1316.9,0,1305,0,1292,0C1280,0,1268,0,1255,0C1243.1,0,1231,0,1218,0C1206.2,0,1194,0,1182,0C1169.2,0,1157,0,1145,0C1132.3,0,1120,0,1108,0C1095.4,0,1083,0,1071,0C1058.5,0,1046,0,1034,0C1021.5,0,1009,0,997,0C984.6,0,972,0,960,0C947.7,0,935,0,923,0C910.8,0,898,0,886,0C873.8,0,862,0,849,0C836.9,0,825,0,812,0C800,0,788,0,775,0C763.1,0,751,0,738,0C726.2,0,714,0,702,0C689.2,0,677,0,665,0C652.3,0,640,0,628,0C615.4,0,603,0,591,0C578.5,0,566,0,554,0C541.5,0,529,0,517,0C504.6,0,492,0,480,0C467.7,0,455,0,443,0C430.8,0,418,0,406,0C393.8,0,382,0,369,0C356.9,0,345,0,332,0C320,0,308,0,295,0C283.1,0,271,0,258,0C246.2,0,234,0,222,0C209.2,0,197,0,185,0C172.3,0,160,0,148,0C135.4,0,123,0,111,0C98.5,0,86,0,74,0C61.5,0,49,0,37,0C24.6,0,12,0,6,0L0,0Z"></path></svg>